<?xml version="1.0" encoding="UTF-8"?>
<svg version="1.1" xmlns="http://www.w3.org/2000/svg" width="512" height="512">
<path d="M0 0 C0.73798828 0.14050781 1.47597656 0.28101562 2.23632812 0.42578125 C15.19436902 3.15954515 27.01901768 9.3251699 38.4375 15.8125 C39.68302014 16.51121345 40.929044 17.20902964 42.17553711 17.90600586 C44.73839305 19.34035817 47.29860442 20.77926999 49.85693359 22.22167969 C53.60962532 24.3349617 57.37507103 26.42462055 61.14453125 28.5078125 C62.35124174 29.17520297 63.55794754 29.84260194 64.76464844 30.51000977 C65.91481445 31.14608154 67.06498047 31.78215332 68.25 32.4375 C70.37721634 33.61423421 72.50355724 34.79255272 74.62890625 35.97265625 C75.63324707 36.52453613 76.63758789 37.07641602 77.67236328 37.64501953 C79.74417273 38.83375166 81.77854298 40.08942881 83.77685547 41.39794922 C84.7876416 42.04908691 85.79842773 42.70022461 86.83984375 43.37109375 C88.16810181 44.2691272 88.16810181 44.2691272 89.52319336 45.18530273 C98.81861203 48.68013918 110.31479486 43.52130741 119.5 40.97265625 C121.12063201 40.52967496 122.74148601 40.08750508 124.36254883 39.64610291 C128.60854118 38.48811518 132.8520167 37.3211799 137.09484863 36.15167236 C143.88295194 34.28181981 150.67439369 32.42417764 157.46664429 30.5694561 C159.82156598 29.92478409 162.17513188 29.27534336 164.52856445 28.6252594 C192.03637717 21.06169297 214.16341102 21.65466906 239.6875 35.375 C241.7177656 36.60962097 243.73960157 37.85828554 245.75 39.125 C250.32647575 41.90604082 254.52361864 43.28707335 259.6875 44.4375 C271.55742448 47.0882019 281.53088728 52.08853391 289.6875 61.375 C293.27860174 67.38427093 293.58688467 72.52583983 292.6875 79.375 C288.94162037 91.4450566 279.1877956 98.51533565 268.55118752 104.39951706 C258.35854379 109.73450482 247.21378274 112.86208847 236.14453125 115.7734375 C234.66977922 116.16798871 233.19522612 116.56328415 231.72085571 116.95925903 C228.59905447 117.79628179 225.47586721 118.62786634 222.35177612 119.45629883 C218.26228716 120.54313082 214.17916877 121.65206599 210.0977602 122.7688179 C194.1897233 127.1212278 178.30008134 131.35185947 162.17020416 134.80624199 C131.71423245 139.50682008 131.71423245 139.50682008 108.41235352 157.00170898 C105.77957286 161.63968654 103.90550776 166.54003722 102.15478516 171.56835938 C99.89911558 177.79568525 96.2615487 183.32641593 92.8164978 188.95083618 C91.73475005 190.73458692 90.68527611 192.53279469 89.64770508 194.3425293 C82.75074317 206.31793668 75.25052498 217.34809694 65.6875 227.375 C64.89859375 228.27605469 64.89859375 228.27605469 64.09375 229.1953125 C56.37879862 237.65814182 45.91869044 243.65424428 35.5 248.15625 C34.73173386 248.49248886 33.96346771 248.82872772 33.17192078 249.17515564 C24.58087844 252.90470096 15.90965594 256.43472612 7.19702148 259.86938477 C5.37645282 260.5903939 3.55878724 261.31877079 1.74389648 262.05395508 C-0.92903627 263.13648452 -3.60963417 264.19746824 -6.29296875 265.25390625 C-7.09719772 265.58395157 -7.9014267 265.91399689 -8.73002625 266.25404358 C-13.76987396 268.20185601 -17.03102506 268.62521694 -22.3125 267.375 C-23.54220886 263.58384517 -23.75592228 261.47332598 -22.24365234 257.72753906 C-20.57973083 254.59538962 -18.81780826 251.54545484 -17 248.5 C-16.35281006 247.38230225 -15.70562012 246.26460449 -15.03881836 245.11303711 C-13.14784206 241.85618633 -11.23341288 238.61425803 -9.3125 235.375 C-8.43367559 233.87441189 -7.55589403 232.37321196 -6.6796875 230.87109375 C-5.1276119 228.217158 -3.56500869 225.56979287 -1.99609375 222.92578125 C8.10183074 205.86296766 17.87022715 188.60033087 27.6875 171.375 C27.07269775 171.50028076 26.45789551 171.62556152 25.82446289 171.75463867 C-24.75574426 181.97450092 -76.5942718 190.56495978 -126.3125 172.375 C-130.58385783 178.60689206 -134.40014649 184.94483951 -137.96679688 191.59960938 C-143.23308608 201.20614403 -149.50968321 207.071852 -160.05078125 210.640625 C-166.15790012 212.41288103 -171.90190992 213.8334639 -178.3125 213.375 C-179.3025 212.385 -179.3025 212.385 -180.3125 211.375 C-180.07626795 204.07765132 -177.97878214 197.99756275 -175.34765625 191.2421875 C-174.95428574 190.20611359 -174.56091522 189.17003967 -174.15562439 188.10256958 C-172.90528314 184.81451299 -171.64082408 181.53212339 -170.375 178.25 C-169.11544137 174.95977356 -167.85889221 171.66843026 -166.60508728 168.37600708 C-165.82660395 166.33436095 -165.04436877 164.29414021 -164.25782776 162.25558472 C-163.25386265 159.63618696 -162.27175405 157.01107031 -161.3125 154.375 C-161.05844894 153.67703812 -160.80439789 152.97907623 -160.54264832 152.25996399 C-159.8327477 150.23068595 -159.8327477 150.23068595 -159.3125 147.375 C-160.96364612 144.74516306 -162.36505363 142.98048533 -164.5 140.8125 C-165.63287716 139.5818786 -166.7630244 138.3487393 -167.890625 137.11328125 C-168.46748047 136.49146973 -169.04433594 135.8696582 -169.63867188 135.22900391 C-172.16149992 132.43461124 -174.45700608 129.48357272 -176.75 126.5 C-180.65837254 121.46049847 -184.64558192 116.49545949 -188.6875 111.5625 C-193.77181374 105.34322063 -198.70981371 99.02652542 -203.54907227 92.61474609 C-206.16335772 89.15596843 -208.80860884 85.7418697 -211.57421875 82.40234375 C-212.34548096 81.46092529 -212.34548096 81.46092529 -213.13232422 80.50048828 C-214.09712704 79.32864894 -215.07334769 78.16607696 -216.06298828 77.01513672 C-218.21663931 74.38271686 -219.28359554 72.54572349 -219.85546875 69.16796875 C-219.3125 66.375 -219.3125 66.375 -217.74584961 64.84179688 C-214.60058894 62.9458677 -211.35686807 62.03656241 -207.8359375 61.11328125 C-207.1106485 60.91776169 -206.3853595 60.72224213 -205.63809204 60.52079773 C-204.10450882 60.11044525 -202.56966864 59.7047654 -201.03369141 59.3034668 C-198.71194533 58.69391785 -196.39715956 58.06189109 -194.08203125 57.42773438 C-176.00650787 52.58274245 -176.00650787 52.58274245 -167.875 55.6875 C-163.46923417 58.596968 -159.88693689 62.63032003 -156.25390625 66.42578125 C-153.45426965 69.30577144 -150.44912576 71.90890795 -147.41186523 74.53393555 C-144.60233472 76.99778828 -141.8870532 79.55294535 -139.17578125 82.12402344 C-137.72788565 83.4949745 -136.27170078 84.85720881 -134.80859375 86.21191406 C-130.93045328 89.81376214 -127.2429584 93.41149163 -123.90332031 97.5234375 C-121.50078696 99.94219422 -119.28171158 101.66113211 -116.3125 103.375 C-113.50447543 103.18211223 -111.55012465 102.82979368 -108.91552734 102.03417969 C-108.18496817 101.83795391 -107.45440899 101.64172813 -106.70171165 101.43955612 C-105.09221217 101.00485642 -103.48588818 100.55827228 -101.88249969 100.10154724 C-99.23475399 99.35302095 -96.57857302 98.64783369 -93.9163208 97.95275879 C-88.90531728 96.64175075 -83.90273672 95.30137047 -78.90199661 93.95178986 C-75.59043877 93.05825972 -72.27793752 92.16830512 -68.96517944 91.27923584 C-59.56108653 88.7546684 -50.15881805 86.22333347 -40.75683594 83.69091797 C-34.97391106 82.13355022 -29.1900273 80.57978674 -23.40555954 79.0281601 C-20.14138311 78.1513218 -16.87838667 77.27018247 -13.61538696 76.38897705 C-11.62858288 75.85576224 -9.64171891 75.32277048 -7.65478516 74.79003906 C-6.74785416 74.5438533 -5.84092316 74.29766754 -4.9065094 74.04402161 C-4.07712357 73.82262009 -3.24773773 73.60121857 -2.39321899 73.37310791 C-1.67325556 73.1791959 -0.95329212 72.98528389 -0.21151161 72.78549576 C1.6875 72.375 1.6875 72.375 4.6875 72.375 C2.19365208 69.57936225 -0.56465081 67.94246596 -3.81640625 66.109375 C-5.49597412 65.15695923 -5.49597412 65.15695923 -7.20947266 64.18530273 C-8.10415253 63.6824324 -8.10415253 63.6824324 -9.01690674 63.16940308 C-11.55091553 61.74507921 -14.07883761 60.31010114 -16.6072998 58.8759613 C-17.91499586 58.13446655 -19.22302361 57.39355649 -20.53137207 56.6532135 C-26.85379488 53.07487189 -33.14829942 49.44888922 -39.4375 45.8125 C-41.56508385 44.58329817 -43.69268809 43.35413163 -45.8203125 42.125 C-46.87766602 41.51398438 -47.93501953 40.90296875 -49.02441406 40.2734375 C-52.47047456 38.28379045 -55.9185701 36.29771002 -59.3671875 34.3125 C-60.5415191 33.63617547 -61.71583565 32.95982481 -62.89013672 32.28344727 C-65.0971143 31.01244356 -67.30444476 29.74205229 -69.51220703 28.47241211 C-74.33444564 25.69385474 -79.14803556 22.90114478 -83.9375 20.06640625 C-84.73414063 19.59533447 -85.53078125 19.1242627 -86.3515625 18.63891602 C-88.3125 17.375 -88.3125 17.375 -90.3125 15.375 C-90.75 12.4375 -90.75 12.4375 -90.3125 9.375 C-86.9825117 6.91221953 -84.07530711 5.90758611 -80.01342773 5.30004883 C-78.97721786 5.14010941 -77.941008 4.98016998 -76.87339783 4.81538391 C-75.75888748 4.65587753 -74.64437714 4.49637115 -73.49609375 4.33203125 C-72.32981949 4.15870773 -71.16354523 3.98538422 -69.96192932 3.80680847 C-67.48723626 3.44251889 -65.01169322 3.08396414 -62.53540039 2.73071289 C-58.81289993 2.19652627 -55.09511723 1.63574381 -51.37695312 1.07226562 C-34.42943427 -1.42800531 -16.94129317 -3.85927217 0 0 Z " fill="#F3F3F3" transform="translate(219.3125,122.625)"/>
<path d="M0 0 C-9.66963688 16.95303526 -19.37652021 33.88364902 -29.14111328 50.78222656 C-31.63689344 55.10247643 -34.13006297 59.42422987 -36.62304688 63.74609375 C-38.49709563 66.99496496 -40.37159428 70.24357632 -42.24609375 73.4921875 C-44.76069436 77.85065388 -47.27354661 82.21012191 -49.78515625 86.5703125 C-56.08201076 97.49887858 -62.3952582 108.41747007 -68.75 119.3125 C-69.33467041 120.31490723 -69.91934082 121.31731445 -70.52172852 122.35009766 C-74.94131955 129.91813237 -74.94131955 129.91813237 -76.73925781 132.42651367 C-78.34160845 135.69730725 -77.88603261 137.53641799 -77 141 C-80.85106401 142.6061074 -84.71031637 144.19003845 -88.57836914 145.75463867 C-89.89101131 146.28909578 -91.20129741 146.82937999 -92.5090332 147.37573242 C-94.39714917 148.16334651 -96.29294915 148.92911298 -98.19140625 149.69140625 C-99.32779541 150.15748291 -100.46418457 150.62355957 -101.63500977 151.10375977 C-105.4715402 152.12559124 -108.14469055 151.80792199 -112 151 C-113.22970886 147.20884517 -113.44342228 145.09832598 -111.93115234 141.35253906 C-110.26723083 138.22038962 -108.50530826 135.17045484 -106.6875 132.125 C-106.04031006 131.00730225 -105.39312012 129.88960449 -104.72631836 128.73803711 C-102.83534206 125.48118633 -100.92091288 122.23925803 -99 119 C-98.12117559 117.49941189 -97.24339403 115.99821196 -96.3671875 114.49609375 C-94.8151119 111.842158 -93.25250869 109.19479287 -91.68359375 106.55078125 C-81.58566926 89.48796766 -71.81727285 72.22533087 -62 55 C-62.92220337 55.18792114 -62.92220337 55.18792114 -63.86303711 55.37963867 C-107.61742004 64.22032541 -154.8949513 73.34895234 -199 62 C-199 61.34 -199 60.68 -199 60 C-185.15820065 55.817102 -171.27104381 52.00086858 -157.2265625 48.55859375 C-149.33646396 46.61440372 -141.52700959 44.48384835 -133.72973633 42.19897461 C-126.18583395 40.0070223 -118.57813526 38.12255173 -110.94921875 36.25195312 C-103.46188811 34.40185788 -96.05544875 32.33939031 -88.65234375 30.1796875 C-81.99262132 28.24947963 -75.29424562 26.54586906 -68.55810547 24.90527344 C-61.18959711 23.09207261 -53.90457147 21.01934843 -46.625 18.87890625 C-45.36816406 18.51152344 -45.36816406 18.51152344 -44.0859375 18.13671875 C-43.3439209 17.91717529 -42.6019043 17.69763184 -41.83740234 17.47143555 C-40 17 -40 17 -38 17 C-37.71125 16.2575 -37.4225 15.515 -37.125 14.75 C-36.568125 13.38875 -36.568125 13.38875 -36 12 C-35.72542969 11.00226563 -35.72542969 11.00226563 -35.4453125 9.984375 C-33.08787501 6.74767704 -29.46842281 6.39379302 -25.75 5.5 C-24.11957295 5.08158052 -22.48936701 4.66229854 -20.859375 4.2421875 C-20.04404297 4.0369043 -19.22871094 3.83162109 -18.38867188 3.62011719 C-13.76113355 2.41877343 -9.1996396 0.9887796 -4.625 -0.3984375 C-2 -1 -2 -1 0 0 Z " fill="#DEDEDE" transform="translate(309,239)"/>
<path d="M0 0 C0.73798828 0.14050781 1.47597656 0.28101562 2.23632812 0.42578125 C15.19447221 3.15956692 27.01884043 9.32531114 38.4375 15.8125 C39.68448226 16.51195085 40.93197111 17.21049921 42.17993164 17.90820312 C44.74428111 19.34323756 47.30597794 20.78284308 49.86572266 22.22607422 C53.59261836 24.32511406 57.33137918 26.40220809 61.07421875 28.47265625 C72.3226405 34.69682944 83.55972808 40.93693603 94.6875 47.375 C92.42061032 49.64188968 91.23140818 49.94657661 88.17895508 50.76025391 C86.76613251 51.14210846 86.76613251 51.14210846 85.32476807 51.53167725 C84.29591492 51.80223938 83.26706177 52.07280151 82.20703125 52.3515625 C81.13829773 52.63823792 80.06956421 52.92491333 78.96844482 53.22027588 C75.48076849 54.15377166 71.99053035 55.07723836 68.5 56 C66.11895723 56.63389429 63.73801654 57.26817212 61.35717773 57.90283203 C55.52184573 59.45607607 49.68413937 61.00016771 43.84545898 62.54077148 C40.98673716 63.29595142 38.12887499 64.05425457 35.27148438 64.81445312 C31.57750627 65.79701006 27.88201659 66.77352765 24.18441772 67.74237061 C22.29310038 68.23868961 20.40300363 68.73965253 18.51293945 69.24072266 C17.3962085 69.52995605 16.27947754 69.81918945 15.12890625 70.1171875 C13.71653687 70.48626221 13.71653687 70.48626221 12.27563477 70.86279297 C7.18889056 71.86948944 4.3228478 71.53077119 -0.13671875 68.83984375 C-1.06919434 68.28562744 -2.00166992 67.73141113 -2.96240234 67.16040039 C-3.96480957 66.55059326 -4.9672168 65.94078613 -6 65.3125 C-8.17268566 64.01740439 -10.34588004 62.72316191 -12.51953125 61.4296875 C-13.64182129 60.75776367 -14.76411133 60.08583984 -15.92041016 59.39355469 C-21.31077478 56.18587262 -26.74891231 53.06247997 -32.1875 49.9375 C-34.36078208 48.68507801 -36.53395845 47.43247257 -38.70703125 46.1796875 C-42.04327109 44.25781492 -45.37971467 42.33629685 -48.71630859 40.41503906 C-71.26440497 27.43016814 -71.26440497 27.43016814 -81.3125 21.5625 C-82.00674072 21.15990967 -82.70098145 20.75731934 -83.41625977 20.3425293 C-85.97664721 18.84097596 -88.20406189 17.48343811 -90.3125 15.375 C-90.75 12.4375 -90.75 12.4375 -90.3125 9.375 C-86.9825117 6.91221953 -84.07530711 5.90758611 -80.01342773 5.30004883 C-78.97721786 5.14010941 -77.941008 4.98016998 -76.87339783 4.81538391 C-75.75888748 4.65587753 -74.64437714 4.49637115 -73.49609375 4.33203125 C-71.74668236 4.07204597 -71.74668236 4.07204597 -69.96192932 3.80680847 C-67.48723626 3.44251889 -65.01169322 3.08396414 -62.53540039 2.73071289 C-58.81289993 2.19652627 -55.09511723 1.63574381 -51.37695312 1.07226562 C-34.42943427 -1.42800531 -16.94129317 -3.85927217 0 0 Z " fill="#E9E9E9" transform="translate(219.3125,122.625)"/>
<path d="M0 0 C0.85159826 8.89447069 -1.16638837 15.08140395 -6.65625 22.125 C-19.56474979 36.12744045 -38.85363638 41.7426018 -56.68359375 46.43359375 C-58.17001063 46.83210672 -59.65620573 47.23144768 -61.14219666 47.63154602 C-65.09028979 48.69216544 -69.04125852 49.74164835 -72.99297333 50.78868103 C-77.10913186 51.88117954 -81.22265142 52.98352566 -85.33642578 54.08496094 C-91.17791048 55.64805142 -97.02029829 57.20768448 -102.86384201 58.76305962 C-111.96625119 61.18611632 -121.06242011 63.63132114 -130.15397072 66.09478951 C-134.67990285 67.32067914 -139.20687849 68.54271122 -143.7336731 69.76541138 C-146.15238873 70.4194147 -148.57074742 71.07473961 -150.98873901 71.73141479 C-154.31154686 72.6329801 -157.63598555 73.52825511 -160.9609375 74.421875 C-162.41499245 74.81878288 -162.41499245 74.81878288 -163.89842224 75.22370911 C-164.78320755 75.4602269 -165.66799286 75.69674469 -166.57958984 75.94042969 C-167.34234222 76.14657898 -168.1050946 76.35272827 -168.89096069 76.56512451 C-171 77 -171 77 -175 77 C-173.48948954 71.49929718 -170.82822689 67.14728923 -167.8125 62.375 C-163.72831864 55.931519 -163.72831864 55.931519 -160.03515625 49.26171875 C-159.48730469 48.20597656 -158.93945312 47.15023437 -158.375 46.0625 C-157.92898438 45.14597656 -157.48296875 44.22945312 -157.0234375 43.28515625 C-153.96000796 39.82549161 -150.38336949 39.12915528 -146 38 C-144.87827393 37.70307251 -144.87827393 37.70307251 -143.73388672 37.40014648 C-141.41113722 36.80546816 -139.08224742 36.24369482 -136.75 35.6875 C-129.61662384 33.94830476 -122.54898886 32.05409271 -115.5 30 C-108.69777731 28.0203143 -101.88235597 26.18011052 -95 24.5 C-88.09929963 22.81408365 -81.26078485 20.97618369 -74.4375 19 C-62.78539471 15.62797391 -51.06878264 12.55639647 -39.31964111 9.54177856 C-37.24991719 9.01059112 -35.18036811 8.47872652 -33.11083984 7.94677734 C-30.38657442 7.24653747 -27.66156358 6.54930977 -24.93603516 5.85400391 C-18.58693144 4.22501589 -12.28635884 2.55186888 -6.05297852 0.52001953 C-4 0 -4 0 0 0 Z " fill="#388FCA" transform="translate(512,192)"/>
<path d="M0 0 C0 3.54892172 -0.88158237 4.91510762 -2.6328125 7.97265625 C-3.47199219 9.44702148 -3.47199219 9.44702148 -4.328125 10.95117188 C-4.92109375 11.97791016 -5.5140625 13.00464844 -6.125 14.0625 C-6.97964844 15.56200195 -6.97964844 15.56200195 -7.8515625 17.09179688 C-8.99648521 19.09411057 -10.15308197 21.08979446 -11.32128906 23.07861328 C-12.41474018 24.9814981 -13.46147606 26.91224538 -14.45214844 28.87060547 C-18.35048382 36.27582847 -18.35048382 36.27582847 -22.75 37.90625 C-24.48871368 38.32133524 -26.2419051 38.67669933 -28 39 C-29.28003906 39.26941406 -30.56007812 39.53882813 -31.87890625 39.81640625 C-36.57264251 40.78598353 -41.28350168 41.64918115 -46 42.5 C-46.84425537 42.65374084 -47.68851074 42.80748169 -48.55834961 42.96588135 C-84.6199835 49.50928171 -122.94053886 54.29023297 -159 45 C-159 44.34 -159 43.68 -159 43 C-145.15820065 38.817102 -131.27104381 35.00086858 -117.2265625 31.55859375 C-109.33646396 29.61440372 -101.52700959 27.48384835 -93.72973633 25.19897461 C-86.18583395 23.0070223 -78.57813526 21.12255173 -70.94921875 19.25195312 C-63.46188811 17.40185788 -56.05544875 15.33939031 -48.65234375 13.1796875 C-41.9939517 11.24986522 -35.29657151 9.54832213 -28.5625 7.90527344 C-18.966207 5.54058181 -9.48390675 2.7764439 0 0 Z " fill="#378ECA" transform="translate(269,256)"/>
<path d="M0 0 C0.061875 0.78375 0.12375 1.5675 0.1875 2.375 C0.455625 3.24125 0.72375 4.1075 1 5 C2.64004937 5.72969876 4.31266847 6.38751774 6 7 C7.57373278 7.8205546 9.13201455 8.67124431 10.67578125 9.546875 C11.57337158 10.05460449 12.47096191 10.56233398 13.39575195 11.08544922 C14.35827881 11.63475098 15.32080566 12.18405273 16.3125 12.75 C17.32723389 13.32637207 18.34196777 13.90274414 19.38745117 14.49658203 C27.55403478 19.14723318 35.67818044 23.86938028 43.78857422 28.6171875 C51.32028116 33.02622948 58.87456103 37.39478084 66.4375 41.75 C68.60038073 42.99848951 70.76314429 44.24718203 72.92578125 45.49609375 C76.75156648 47.70538391 80.58240524 49.90539577 84.41796875 52.09765625 C85.98718205 53.00225232 87.55620755 53.90717427 89.125 54.8125 C89.8358374 55.21500977 90.5466748 55.61751953 91.27905273 56.03222656 C92.88662299 56.96535054 94.44977098 57.97443066 96 59 C96 59.66 96 60.32 96 61 C91.82125031 62.14739197 87.64034299 63.28644776 83.45727539 64.41796875 C82.03576113 64.80372743 80.61485177 65.19172258 79.19458008 65.58203125 C77.14821369 66.14397564 75.09977768 66.69773333 73.05078125 67.25 C71.20480347 67.75273437 71.20480347 67.75273437 69.3215332 68.265625 C63.86796815 69.47138198 60.98241827 69.36519546 56.17578125 66.46484375 C55.24330566 65.91062744 54.31083008 65.35641113 53.35009766 64.78540039 C52.34769043 64.17559326 51.3452832 63.56578613 50.3125 62.9375 C48.13981434 61.64240439 45.96661996 60.34816191 43.79296875 59.0546875 C42.67067871 58.38276367 41.54838867 57.71083984 40.39208984 57.01855469 C35.00172522 53.81087262 29.56358769 50.68747997 24.125 47.5625 C21.95171792 46.31007801 19.77854155 45.05747257 17.60546875 43.8046875 C14.26922891 41.88281492 10.93278533 39.96129685 7.59619141 38.04003906 C-14.95190497 25.05516814 -14.95190497 25.05516814 -25 19.1875 C-25.69424072 18.78490967 -26.38848145 18.38231934 -27.10375977 17.9675293 C-29.66414721 16.46597596 -31.89156189 15.10843811 -34 13 C-34.4375 10.0625 -34.4375 10.0625 -34 7 C-30.38039152 4.25244651 -27.12661327 3.45088633 -22.67578125 2.83203125 C-21.48275391 2.66123047 -20.28972656 2.49042969 -19.06054688 2.31445312 C-17.82369141 2.14880859 -16.58683594 1.98316406 -15.3125 1.8125 C-14.06404297 1.63525391 -12.81558594 1.45800781 -11.52929688 1.27539062 C-2.44398528 0 -2.44398528 0 0 0 Z " fill="#D4D4D4" transform="translate(163,125)"/>
<path d="M0 0 C0.99 0.99 0.99 0.99 2 2 C1.68818827 6.53105163 0.29220214 9.76401939 -1.94921875 13.66796875 C-2.55056641 14.72693359 -3.15191406 15.78589844 -3.77148438 16.87695312 C-4.40376953 17.96943359 -5.03605469 19.06191406 -5.6875 20.1875 C-6.9211355 22.34733502 -8.15421275 24.50748899 -9.38671875 26.66796875 C-9.99378662 27.72717529 -10.60085449 28.78638184 -11.22631836 29.87768555 C-13.88100907 34.55089126 -16.44157883 39.27362702 -19 44 C-20.51027652 46.77678595 -22.03165293 49.54700955 -23.5625 52.3125 C-23.92279297 52.97572266 -24.28308594 53.63894531 -24.65429688 54.32226562 C-30.33569857 64.54475216 -37.30856461 70.52916734 -48.71533203 73.83935547 C-54.23531477 75.33859317 -59.2516507 76.41110266 -65 76 C-65.66 75.34 -66.32 74.68 -67 74 C-66.75969989 66.70711847 -64.67441611 60.59489157 -62.0703125 53.83203125 C-61.67931366 52.79358566 -61.28831482 51.75514008 -60.88546753 50.68522644 C-60.06149635 48.50257806 -59.23256176 46.3217976 -58.39892578 44.14282227 C-57.12632773 40.81597099 -55.86850639 37.48383072 -54.61328125 34.15039062 C-53.80814417 32.02311465 -53.00218261 29.8961505 -52.1953125 27.76953125 C-51.82020538 26.77879105 -51.44509827 25.78805084 -51.05862427 24.76728821 C-46.00427002 11.57635204 -46.00427002 11.57635204 -42.06640625 9.31640625 C-36.82249434 7.43344655 -31.35056769 6.22569809 -25.9375 4.9375 C-18.16528693 3.10934693 -18.16528693 3.10934693 -10.51953125 0.83203125 C-6.8008191 -0.39600858 -3.90045216 -0.26003014 0 0 Z " fill="#4190EE" transform="translate(106,260)"/>
<path d="M0 0 C2.78758283 2.14667572 4.73374323 4.80680962 6.8125 7.625 C7.41505615 8.39900146 8.0176123 9.17300293 8.63842773 9.97045898 C9.86640439 11.55183826 11.08403171 13.14131001 12.29101562 14.73876953 C14.23987953 17.31739488 16.23542141 19.85555667 18.2409668 22.39013672 C19.57537896 24.07879797 20.89927398 25.77534295 22.22265625 27.47265625 C25.80258578 32.04264192 29.48252356 36.53088969 33.15551758 41.02612305 C36.74710592 45.43080041 40.26440624 49.88622034 43.75 54.375 C54.5917922 68.50323725 54.5917922 68.50323725 68 80 C59.42 82.31 50.84 84.62 42 87 C37.40892743 81.83504336 33.0529911 76.92735821 28.875 71.5 C24.67629609 66.08714097 20.37145952 60.77417692 16 55.5 C10.33772877 48.65997636 4.80260639 41.73478404 -0.65136719 34.72802734 C-2.55028047 32.29491579 -4.46272698 29.87256844 -6.375 27.44995117 C-7.76804203 25.68144078 -9.15417208 23.90770952 -10.5390625 22.1328125 C-12.01280738 20.25671188 -13.50249729 18.39273494 -15.0234375 16.5546875 C-17.5186646 13.47372634 -18.87950005 11.63864971 -19.625 7.6875 C-19 5 -19 5 -17.4375 3.25 C-12.1662004 0.54676944 -5.90749241 -1.41949517 0 0 Z " fill="#DEDEDE" transform="translate(19,184)"/>
<path d="M0 0 C0 3.3 0 6.6 0 10 C-0.99 9.01 -0.99 9.01 -2 8 C-2.99966797 8.67095703 -2.99966797 8.67095703 -4.01953125 9.35546875 C-17.87124418 18.44141751 -32.34494785 23.18816846 -48.32006836 27.07861328 C-53.59655253 28.37115346 -58.80520979 29.78779279 -64 31.375 C-72.81397068 34.05583102 -81.75164427 36.20871586 -90.6953125 38.40917969 C-97.84574675 40.17941408 -104.92249445 42.07882335 -111.96826172 44.22436523 C-118.97901954 46.34050759 -126.08177389 48.06040285 -133.19140625 49.80859375 C-139.82084187 51.44059668 -146.41116971 53.21138482 -153 55 C-154.11117188 55.30164063 -155.22234375 55.60328125 -156.3671875 55.9140625 C-158.91212916 56.6069601 -161.45645928 57.30198051 -164 58 C-163.06506561 56.10290012 -162.12693704 54.20737422 -161.1875 52.3125 C-160.66542969 51.25675781 -160.14335937 50.20101562 -159.60546875 49.11328125 C-158.81076172 47.57220703 -158.81076172 47.57220703 -158 46 C-157.62488281 45.10667969 -157.24976563 44.21335938 -156.86328125 43.29296875 C-153.96835481 39.73044921 -150.33856884 39.1155095 -146 38 C-145.25169922 37.80196777 -144.50339844 37.60393555 -143.73242188 37.39990234 C-141.4101791 36.80521854 -139.08177117 36.24358124 -136.75 35.6875 C-129.61662384 33.94830476 -122.54898886 32.05409271 -115.5 30 C-108.69777731 28.0203143 -101.88235597 26.18011052 -95 24.5 C-88.09929963 22.81408365 -81.26078485 20.97618369 -74.4375 19 C-62.78539471 15.62797391 -51.06878264 12.55639647 -39.31964111 9.54177856 C-37.24991719 9.01059112 -35.18036811 8.47872652 -33.11083984 7.94677734 C-30.38657442 7.24653747 -27.66156358 6.54930977 -24.93603516 5.85400391 C-18.58693144 4.22501589 -12.28635884 2.55186888 -6.05297852 0.52001953 C-4 0 -4 0 0 0 Z " fill="#399BDD" transform="translate(512,192)"/>
<path d="M0 0 C-2.05289458 7.25894366 -4.53720642 14.27090666 -7.265625 21.30078125 C-8.0812704 23.43273572 -8.89635854 25.56490346 -9.7109375 27.69726562 C-10.98483416 31.02187936 -12.26254239 34.34484306 -13.54980469 37.66430664 C-14.79982484 40.8930508 -16.0339258 44.12751175 -17.265625 47.36328125 C-17.65510315 48.35604568 -18.0445813 49.34881012 -18.44586182 50.37165833 C-18.9720108 51.76417061 -18.9720108 51.76417061 -19.50878906 53.18481445 C-19.82172913 53.99626419 -20.13466919 54.80771393 -20.45709229 55.64375305 C-21.10402724 58.45148348 -20.82020657 60.25472824 -20 63 C-18.5420814 64.79385992 -18.5420814 64.79385992 -17 66 C-19.35143176 66.67789024 -21.70538624 67.34240747 -24.0625 68 C-25.04766602 68.28617188 -25.04766602 68.28617188 -26.05273438 68.578125 C-30.4512747 69.79151544 -34.39528734 70.36791712 -39 70 C-39.66 69.34 -40.32 68.68 -41 68 C-40.75969989 60.70711847 -38.67441611 54.59489157 -36.0703125 47.83203125 C-35.67931366 46.79358566 -35.28831482 45.75514008 -34.88546753 44.68522644 C-34.06149635 42.50257806 -33.23256176 40.3217976 -32.39892578 38.14282227 C-31.12632773 34.81597099 -29.86850639 31.48383072 -28.61328125 28.15039062 C-27.80814417 26.02311465 -27.00218261 23.8961505 -26.1953125 21.76953125 C-25.82020538 20.77879105 -25.44509827 19.78805084 -25.05862427 18.76728821 C-19.99745925 5.55857718 -19.99745925 5.55857718 -15.875 3.25 C-10.78551722 1.41995194 -5.41950075 0 0 0 Z " fill="#3B83D9" transform="translate(80,266)"/>
<path d="M0 0 C0 5.90656611 -2.1471853 10.98822819 -5.98632812 15.41210938 C-13.05570201 20.9866981 -24.14391349 21.1991089 -32.83837891 22.40869141 C-37.00434244 22.98827287 -41.1468094 23.68108153 -45.29296875 24.38671875 C-62.45990309 27.25823019 -79.59955547 29.19711281 -97 30 C-98.19238281 30.05542969 -99.38476562 30.11085938 -100.61328125 30.16796875 C-103 30 -103 30 -105 28 C-104.26177002 27.81937012 -103.52354004 27.63874023 -102.76293945 27.45263672 C-89.59422763 24.22093827 -76.4699637 20.93756731 -63.4543457 17.13037109 C-57.66672885 15.44725194 -51.8551191 13.92957196 -46 12.5 C-38.12585351 10.57638405 -30.33518192 8.42896019 -22.55004883 6.17333984 C-15.06120774 4.00452953 -7.54355639 1.96989952 0 0 Z " fill="#3B9BDD" transform="translate(269,256)"/>
<path d="M0 0 C0.33 0.66 0.66 1.32 1 2 C2.69678473 2.74724227 2.69678473 2.74724227 4.875 3.3125 C5.76574219 3.56386719 6.65648438 3.81523437 7.57421875 4.07421875 C9.26998047 4.53248047 9.26998047 4.53248047 11 5 C11.73299316 5.20061035 12.46598633 5.4012207 13.22119141 5.60791016 C15.70821629 6.28691856 18.19737308 6.95746164 20.6875 7.625 C21.49493652 7.84325439 22.30237305 8.06150879 23.13427734 8.28637695 C31.56086322 10.511141 39.75171934 11.21778131 48.4375 11.5625 C49.45521484 11.60568359 50.47292969 11.64886719 51.52148438 11.69335938 C54.01421028 11.79868582 56.50702338 11.90081672 59 12 C59 12.33 59 12.66 59 13 C57.54315796 13.36967896 57.54315796 13.36967896 56.05688477 13.74682617 C52.3638441 14.6848642 48.67189713 15.62715001 44.98022461 16.57055664 C43.39912797 16.97401329 41.81775817 17.37640135 40.23608398 17.77758789 C37.9287473 18.36305346 35.62231725 18.95191368 33.31640625 19.54296875 C32.54978668 19.73922348 31.78316711 19.93547821 30.99331665 20.13768005 C27.04497999 21.16218621 23.12503344 22.24517095 19.22216797 23.43188477 C18.45412338 23.66518997 17.6860788 23.89849518 16.89476013 24.13887024 C15.44051662 24.58586317 13.98870191 25.0408668 12.53993225 25.5052948 C7.04998327 27.1999006 3.22419489 27.31168078 -2 25 C-2.83660156 24.65582031 -3.67320313 24.31164062 -4.53515625 23.95703125 C-6.71917939 23.0219858 -8.86443852 22.04001339 -11 21 C-3.70159453 6.21867882 -3.70159453 6.21867882 0 0 Z " fill="#DCDDDE" transform="translate(103,273)"/>
<path d="M0 0 C3.90265896 2.00378457 7.57064661 4.25899783 11 7 C11 7.66 11 8.32 11 9 C4.67461967 10.70854144 -1.65187044 12.4127885 -7.98046875 14.109375 C-12.21785116 15.24638776 -16.44998244 16.39883231 -20.67578125 17.578125 C-21.51971436 17.80991455 -22.36364746 18.0417041 -23.2331543 18.28051758 C-24.77720756 18.70463183 -26.31923325 19.13623176 -27.85864258 19.5769043 C-32.70381813 20.89333989 -36.97328224 21.4416097 -42 21 C-44.31361802 17.52957297 -44.51020728 16.08165827 -44 12 C-40.78955344 8.8252802 -37.20169047 8.05717547 -32.8984375 6.9921875 C-32.22076324 6.82123566 -31.54308899 6.65028381 -30.84487915 6.47415161 C-28.69034042 5.93229659 -26.53293061 5.4031682 -24.375 4.875 C-22.21060862 4.337266 -20.04690078 3.79691814 -17.88369751 3.25442505 C-15.92675425 2.76490488 -13.96805358 2.28242636 -12.00927734 1.80029297 C-2.85681556 -0.63373021 -2.85681556 -0.63373021 0 0 Z " fill="#AAAAAA" transform="translate(459,158)"/>
<path d="M0 0 C2 2 2 2 2.3125 5.4375 C2 9 2 9 0.8125 10.9375 C-1.70554428 12.41359492 -3.12476676 12.49089348 -6 12 C-8.77389443 9.97580677 -9.85519403 8.84814923 -10.4375 5.4375 C-10 3 -10 3 -8.9375 1.1875 C-5.94449731 -0.646921 -3.42183337 -0.31107576 0 0 Z " fill="#ABABAB" transform="translate(192,230)"/>
<path d="M0 0 C1.8125 1.125 1.8125 1.125 3 3 C3.39365568 6.14924548 3.52854531 8.11909116 1.875 10.875 C-0.91106042 12.54663625 -2.81988862 12.46376624 -6 12 C-7.9375 10.375 -7.9375 10.375 -9 8 C-8.875 4.875 -8.875 4.875 -8 2 C-4.76746204 -0.15502531 -3.74849077 -0.46856135 0 0 Z " fill="#AAAAAA" transform="translate(227,220)"/>
<path d="M0 0 C2.875 0.875 2.875 0.875 4.875 2.875 C5.125 6.375 5.125 6.375 4.875 9.875 C2.875 11.875 2.875 11.875 -0.5625 12.1875 C-4.125 11.875 -4.125 11.875 -6.0625 10.6875 C-7.53859492 8.16945572 -7.61589348 6.75023324 -7.125 3.875 C-4.88889892 0.60685227 -4.01504863 -0.16060195 0 0 Z " fill="#ABABAB" transform="translate(261.125,210.125)"/>
<path d="M0 0 C1.875 1.125 1.875 1.125 3 3 C3.4375 6 3.4375 6 3 9 C1.375 10.9375 1.375 10.9375 -1 12 C-4.125 11.875 -4.125 11.875 -7 11 C-9.15502531 7.76746204 -9.46856135 6.74849077 -9 3 C-6.73529086 -0.64869805 -4.03159541 -0.50394943 0 0 Z " fill="#AAAAAA" transform="translate(299,201)"/>
<path d="M0 0 C2 3 2 3 1.8125 6.5625 C1 10 1 10 -2 12 C-4.78758532 11.7909311 -6.50703708 11.33997443 -8.8125 9.75 C-10.45364719 7.3314673 -10.42967368 5.86449123 -10 3 C-7.66359177 -0.98563758 -4.22275562 -0.46066425 0 0 Z " fill="#ABABAB" transform="translate(372,182)"/>
<path d="M0 0 C2.9375 0.75 2.9375 0.75 4.9375 2.75 C5.26765665 5.85347254 5.44281294 7.90781176 3.8125 10.625 C1.02643958 12.29663625 -0.88238862 12.21376624 -4.0625 11.75 C-6 10.125 -6 10.125 -7.0625 7.75 C-6.9375 4.625 -6.9375 4.625 -6.0625 1.75 C-3.0625 -0.25 -3.0625 -0.25 0 0 Z " fill="#AAAAAA" transform="translate(333.0625,191.25)"/>
</svg>
